<svg width="30" height="30" viewBox="0 0 30 30" fill="none" xmlns="http://www.w3.org/2000/svg">
<path d="M29.5162 11.7742H0.483887V18.2259H29.5162V11.7742Z" fill="#103B9B"/>
<path d="M27.4409 5.3226H2.55916C1.41295 5.3226 0.483887 6.25172 0.483887 7.39782V11.7742H29.5162V7.39782C29.5162 6.25166 28.587 5.3226 27.4409 5.3226Z" fill="white"/>
<path d="M0.483887 22.6021C0.483887 23.7483 1.41301 24.6774 2.55916 24.6774H27.4409C28.587 24.6774 29.5162 23.7482 29.5162 22.6021V18.2258H0.483887V22.6021Z" fill="#ED1F34"/>
<path d="M27.4409 4.83875H2.55914C1.14809 4.83875 0 5.98671 0 7.39783V22.6021C0 24.0133 1.14809 25.1613 2.55914 25.1613H27.4408C28.8519 25.1613 29.9999 24.0133 29.9999 22.6021V7.39783C30 5.98671 28.8519 4.83875 27.4409 4.83875ZM2.55914 5.80648H27.4408C28.3184 5.80648 29.0322 6.52033 29.0322 7.39783V11.2903H0.967734V7.39783C0.967734 6.52033 1.68164 5.80648 2.55914 5.80648ZM27.4409 24.1936H2.55914C1.68158 24.1936 0.967734 23.4797 0.967734 22.6021V18.7097H23.7097C23.977 18.7097 24.1935 18.4931 24.1935 18.2258C24.1935 17.9586 23.977 17.742 23.7097 17.742H0.967734V12.2581H29.0323V17.742H25.6452C25.3779 17.742 25.1613 17.9586 25.1613 18.2258C25.1613 18.4931 25.3779 18.7097 25.6452 18.7097H29.0323V22.6021C29.0323 23.4797 28.3184 24.1936 27.4409 24.1936Z" fill="#121B21"/>
</svg>
