<svg width="30" height="30" viewBox="0 0 30 30" fill="none" xmlns="http://www.w3.org/2000/svg">
<path d="M27.8556 5H2.14445C0.960031 5 0 6.58416 0 8.53826V16H30V8.53826C30 6.58406 29.0399 5 27.8556 5Z" fill="#0066CC"/>
<path d="M0 22.105C0 23.7039 0.960091 25 2.14445 25H27.8556C29.0399 25 30 23.7038 30 22.105V16H0V22.105Z" fill="#FFCC00"/>
<path d="M27.4409 4.83875H2.55914C1.14809 4.83875 0 5.98671 0 7.39783V22.6021C0 24.0133 1.14809 25.1613 2.55914 25.1613H27.4408C28.8519 25.1613 29.9999 24.0133 29.9999 22.6021V7.39783C30 5.98671 28.8519 4.83875 27.4409 4.83875ZM2.55914 5.80648H27.4408C28.3184 5.80648 29.0322 6.52033 29.0322 7.39783V11.2903H0.967734V7.39783C0.967734 6.52033 1.68164 5.80648 2.55914 5.80648ZM27.4409 24.1936H2.55914C1.68158 24.1936 0.967734 23.4797 0.967734 22.6021V16H23.5C23.7673 16 24 15.7672 24 15.5C24 15.2328 23.7673 15 23.5 15H0.967734V11.2903H29.0322L29.0323 15H25.5C25.2327 15 25 15.2328 25 15.5C25 15.7672 25.2327 16 25.5 16H29.0323V22.6021C29.0323 23.4797 28.3184 24.1936 27.4409 24.1936Z" fill="#121B21"/>
</svg>
